<?xml version="1.0" standalone="no"?><!DOCTYPE svg PUBLIC "-//W3C//DTD SVG 1.1//EN" "http://www.w3.org/Graphics/SVG/1.1/DTD/svg11.dtd"><svg t="1565927511603" class="icon" viewBox="0 0 1024 1024" version="1.1" xmlns="http://www.w3.org/2000/svg" p-id="5097" xmlns:xlink="http://www.w3.org/1999/xlink" width="200" height="200"><defs><style type="text/css"></style></defs><path d="M850.016968 467.853547c-14.439874 0-26.14752 11.706623-26.14752 26.14752 0 84.196611-32.788777 163.353438-92.326778 222.887346-59.539025 59.535955-138.704039 92.323709-222.911906 92.323709-84.202751 0-163.362648-32.787754-222.897579-92.322685-59.533908-59.533908-92.320639-138.690736-92.320639-222.88837 0-84.197634 32.786731-163.355485 92.320639-222.889393 59.535955-59.534931 138.695852-92.322685 222.897579-92.322685 55.970756 0 110.934578 14.848173 158.949128 42.939975 46.63411 27.285436 85.74385 66.333778 113.099894 112.924909 7.312546 12.45159 23.332405 16.619516 35.787064 9.309016 12.452613-7.311523 16.620539-23.334451 9.309016-35.787064-31.875988-54.289464-77.447906-99.789751-131.787512-131.582851-56.017828-32.774451-120.113635-50.098002-185.357592-50.098002-49.605791 0-97.739045 9.720386-143.06537 28.891004-43.766806 18.510586-83.066881 45.00603-116.809379 78.748528-33.742499 33.742499-60.236919 73.042573-78.747505 116.808356-19.169595 45.324278-28.889981 93.456508-28.889981 143.058207 0 49.601698 9.720386 97.732905 28.889981 143.057183 18.510586 43.766806 45.005007 83.065857 78.747505 116.807333 33.742499 33.743522 73.043596 60.237943 116.809379 78.748528 45.326325 19.170618 93.460602 28.891004 143.06537 28.891004 49.607838 0 97.744161-9.720386 143.07151-28.889981 43.768853-18.511609 83.071997-45.00603 116.816542-78.748528 33.744545-33.742499 60.239989-73.042573 78.751598-116.807333 19.171642-45.324278 28.892027-93.456508 28.892027-143.058207C876.164488 479.559147 864.457866 467.853547 850.016968 467.853547z" p-id="5098"></path><path d="M582.350766 650.111544l42.939975 0c30.474059 0.908696 48.00534-9.69685 52.636824-31.859615 4.609994-11.991102 7.380084-27.702945 8.31027-47.095621-8.31027-2.77009-21.25407-7.834432-38.784328-15.237029 0 1.860371-0.475837 5.54018-1.385557 11.081383-0.930185 13.851473-1.861394 23.092951-2.77009 27.702945-1.861394 14.781658-10.627035 21.708418-26.318412 20.778232l-18.008142 0c-14.782681 0.930185-21.708418-6.449899-20.778232-22.162766l0-81.725326 45.711088-1.385557 20.778232 22.162766 31.859615-27.703969c-38.785352-35.084053-72.030523-64.172555-99.733469-87.266529l-27.702945 22.162766c2.77009 2.77009 7.380084 6.925736 13.851473 12.466939 10.151197 10.171664 17.531282 17.552771 22.162766 22.162766l-141.28891 4.155646c17.531282-13.851473 43.395346-38.309514 77.56968-73.414033l160.680563 0 0-37.399795L550.491151 367.534747c-0.930185-2.77009-2.316765-6.925736-4.15667-12.466939-3.700275-13.851473-6.470365-23.071462-8.31027-27.703969l-48.481178 4.155646c0.908696 2.771113 2.293229 6.925736 4.155646 12.466939 3.679809 10.172687 5.994528 18.007119 6.92676 23.548322L356.56644 367.534747l0 37.399795 109.429295 0c-13.851473 15.712867-32.335453 34.174334-55.406914 55.406914-11.081383 8.311293-22.639626 15.712867-34.629705 22.162766l19.392676 40.169885c11.081383-3.679809 25.388227-5.995551 42.940998-6.925736 3.678786 0 6.925736 0 9.695826 0 5.541203 52.636824-26.794249 87.742367-96.962356 105.272625 1.839905 2.77009 4.609994 6.92676 8.311293 12.466939 8.311293 11.081383 14.305821 19.392676 18.007119 24.932856 80.340793-25.863041 118.194936-73.869405 113.584941-144.057977 14.761192-0.908696 29.54285-1.385557 44.325531-1.385557l0 92.806709C534.322913 636.260072 550.01429 651.02024 582.350766 650.111544z" p-id="5099"></path></svg>